<?xml version="1.0" encoding="UTF-8"?>
<svg xmlns="http://www.w3.org/2000/svg" xmlns:xlink="http://www.w3.org/1999/xlink"
     width="200" height="100" viewBox="-100.0 -50.0 200 100">
<defs>
</defs>
<path d="M75,12 L-79,12" fill="#eeee00" stroke="black" stroke-width="0.2" />
<path d="M-79,12 L-79,-21" fill="#000000" stroke="black" stroke-width="0.2" />
<path d="M-75.0,-25.0 A4,4,0,0,0,-79.0,-21.0" fill="none" stroke="black" stroke-width="0.2" />
<path d="M-75,-25 L-69,-25" fill="#000000" stroke="black" stroke-width="0.2" />
<path d="M-69,-25 L-20,-25" fill="#000000" stroke="black" stroke-width="0.2" />
<text x="-46" y="-30" font-size="5" fill="black" dy="0em">2.25"</text>
<path d="M-20,-25 L-20,-21" fill="#000000" stroke="black" stroke-width="0.2" />
<path d="M-20,-21 L-16,-21" fill="#000000" stroke="black" stroke-width="0.2" />
<rect x="-3.8" y="14.2" width="0.2" height="12" transform="rotate(-225)" stroke-width="0.2" />
<path d="M-7.5,-12.5 L75,-12.5" fill="#000000" stroke="black" stroke-width="0.2" />
<path d="M-17,-25 L2.0,-25" fill="#000000" stroke="black" stroke-width="0.2" />
<path d="M-79,-27 L-79,-37" fill="#000000" stroke="black" stroke-width="0.2" />
<path d="M-7.5,-27 L-7.5,-37" fill="#000000" stroke="black" stroke-width="0.2" />
<text x="1" y="-16" font-size="5" dy="0em">1/8"</text>
<text x="-21" y="-14" font-size="5" dy="0em">45°</text>
</svg>