<?xml version="1.0" encoding="UTF-8"?>
<svg xmlns="http://www.w3.org/2000/svg" xmlns:xlink="http://www.w3.org/1999/xlink"
     width="200" height="100" viewBox="-100.0 -50.0 200 100">
<defs>
</defs>
<path d="M75,12 L-60,12" fill="#eeee00" stroke="black" stroke-width="0.2" />
<path d="M-60,12 L-60,-17" fill="#000000" stroke="black" stroke-width="0.2" />
<path d="M-52.0,-25.0 A8,8,0,0,0,-60.0,-17.0" fill="none" stroke="black" stroke-width="0.2" />
<path d="M-52,-25 L-50,-25" fill="#000000" stroke="black" stroke-width="0.2" />
<path d="M-50,-25 L-20,-25" fill="#000000" stroke="black" stroke-width="0.2" />
<text x="-39" y="-30" font-size="5" fill="black" dy="0em">1"</text>
<path d="M-20,-25 L-20,-21" fill="#000000" stroke="black" stroke-width="0.2" />
<path d="M-20,-21 L-16,-21" fill="#000000" stroke="black" stroke-width="0.2" />
<rect x="-3.8" y="6.199999999999999" width="0.2" height="20" transform="rotate(-225)" stroke-width="0.2" />
<path d="M-2,-7 L75,-7" fill="#000000" stroke="black" stroke-width="0.2" />
<path d="M-17,-25 L13,-25" fill="#000000" stroke="black" stroke-width="0.2" />
<path d="M-60,-27 L-60,-37" fill="#000000" stroke="black" stroke-width="0.2" />
<path d="M-2,-27 L-2,-37" fill="#000000" stroke="black" stroke-width="0.2" />
<text x="1" y="-9" font-size="5" dy="0em">3/8"</text>
<text x="-20" y="-11" font-size="5" dy="0em">45°</text>
</svg>