<?xml version="1.0" encoding="UTF-8"?>
<svg xmlns="http://www.w3.org/2000/svg" xmlns:xlink="http://www.w3.org/1999/xlink"
     width="200" height="100" viewBox="-100.0 -50.0 200 100">
<defs>
</defs>
<path d="M75,12 L-79,12" fill="#eeee00" stroke="black" stroke-width="0.2" />
<path d="M-79,12 L-79,-17" fill="#000000" stroke="black" stroke-width="0.2" />
<path d="M-73.0,-23.0 A6,6,0,0,0,-79.0,-17.0" fill="none" stroke="black" stroke-width="0.2" />
<path d="M-73,-23 L-69,-23" fill="#000000" stroke="black" stroke-width="0.2" />
<path d="M-69,-23 L-69,-25" fill="#000000" stroke="black" stroke-width="0.2" />
<path d="M-69,-25 L-20,-25" fill="#000000" stroke="black" stroke-width="0.2" />
<text x="-46" y="-30" font-size="5" fill="black" dy="0em">2.25"</text>
<path d="M-20,-25 L-20,-21" fill="#000000" stroke="black" stroke-width="0.2" />
<path d="M-20,-21 L-16,-21" fill="#000000" stroke="black" stroke-width="0.2" />
<rect x="-3.8" y="10.2" width="0.2" height="16" transform="rotate(-225)" stroke-width="0.2" />
<path d="M-4.7,-9.7 L75,-9.7" fill="#000000" stroke="black" stroke-width="0.2" />
<path d="M-17,-25 L7.6000000000000005,-25" fill="#000000" stroke="black" stroke-width="0.2" />
<path d="M-79,-27 L-79,-37" fill="#000000" stroke="black" stroke-width="0.2" />
<path d="M-4.7,-27 L-4.7,-37" fill="#000000" stroke="black" stroke-width="0.2" />
<text x="1" y="-14" font-size="5" dy="0em">1/4"</text>
<text x="-21" y="-12" font-size="5" dy="0em">45°</text>
</svg>