<?xml version="1.0" encoding="UTF-8"?>
<svg xmlns="http://www.w3.org/2000/svg" xmlns:xlink="http://www.w3.org/1999/xlink"
     width="200" height="100" viewBox="-100.0 -50.0 200 100">
<defs>
</defs>
<path d="M75,12 L-75,12" fill="#eeee00" stroke="black" stroke-width="0.2" />
<path d="M-75,12 L-75,-17" fill="#000000" stroke="black" stroke-width="0.2" />
<path d="M-75.0,-17.0 A8,8,0,0,0,-67.0,-25.0" fill="none" stroke="black" stroke-width="0.2" />
<path d="M-67,-25 L-65,-25" fill="#000000" stroke="black" stroke-width="0.2" />
<path d="M-65,-25 L-20,-25" fill="#000000" stroke="black" stroke-width="0.2" />
<text x="-42" y="-30" font-size="5" fill="black" dy="0em">2"</text>
<path d="M-20,-25 L-20,-21" fill="#000000" stroke="black" stroke-width="0.2" />
<path d="M-20,-21 L-16,-21" fill="#000000" stroke="black" stroke-width="0.2" />
<rect x="-3.8" y="8.2" width="0.2" height="18" transform="rotate(-225)" stroke-width="0.2" />
<path d="M-3.3,-8.3 L75,-8.3" fill="#000000" stroke="black" stroke-width="0.2" />
<path d="M-17,-25 L10.399999999999999,-25" fill="#000000" stroke="black" stroke-width="0.2" />
<path d="M-75,-27 L-75,-37" fill="#000000" stroke="black" stroke-width="0.2" />
<path d="M-3.3,-27 L-3.3,-37" fill="#000000" stroke="black" stroke-width="0.2" />
<text x="1" y="-12" font-size="5" dy="0em">5/16"</text>
<text x="-19" y="-11" font-size="5" dy="0em">45°</text>
</svg>